<?xml version="1.0" standalone="no"?>
<!DOCTYPE svg PUBLIC "-//W3C//DTD SVG 20010904//EN"
 "http://www.w3.org/TR/2001/REC-SVG-20010904/DTD/svg10.dtd">
<svg version="1.0" xmlns="http://www.w3.org/2000/svg"
 width="300.000000pt" height="300.000000pt" viewBox="0 0 300.000000 300.000000"
 preserveAspectRatio="xMidYMid meet">
<metadata>
Created by potrace 1.11, written by Peter Selinger 2001-2013
</metadata>
<g transform="translate(0.000000,300.000000) scale(0.100000,-0.100000)"
fill="#000000" stroke="none">
<path d="M1449 2861 c-68 -22 -1028 -489 -1057 -515 -21 -18 -37 -46 -47 -80
-42 -149 -248 -1068 -248 -1107 1 -25 7 -58 15 -73 7 -14 174 -226 371 -470
262 -326 366 -448 391 -460 31 -15 99 -16 631 -16 654 0 621 -3 681 62 76 82
698 865 710 894 8 19 14 46 14 61 1 57 -252 1127 -273 1159 -11 17 -34 40 -51
51 -17 12 -255 127 -528 257 -501 238 -548 257 -609 237z m108 -382 c10 -20
10 -45 1 -112 -10 -75 -10 -92 4 -121 15 -29 22 -34 68 -40 122 -16 278 -90
375 -178 29 -26 54 -45 57 -42 3 2 15 7 27 9 25 5 73 43 114 90 40 48 80 62
112 41 28 -18 33 -59 12 -87 -7 -9 -37 -31 -67 -49 -71 -43 -87 -57 -104 -90
-12 -26 -10 -34 25 -106 54 -110 80 -217 82 -339 1 -125 13 -140 115 -150 103
-10 145 -25 156 -57 8 -22 6 -32 -9 -48 -24 -26 -49 -25 -129 5 -117 44 -151
37 -181 -37 -50 -122 -171 -272 -271 -335 -39 -25 -41 -29 -38 -65 2 -25 21
-65 49 -109 53 -82 58 -120 19 -146 -44 -28 -72 -4 -114 100 -19 47 -45 96
-58 107 l-22 21 -87 -22 c-73 -18 -107 -21 -207 -17 -73 3 -144 12 -178 22
-85 26 -102 11 -155 -138 -10 -28 -30 -58 -46 -70 -26 -19 -30 -19 -55 -5 -36
20 -40 64 -10 109 56 83 72 116 74 152 2 35 -2 40 -47 69 -87 56 -185 171
-237 280 -46 96 -48 98 -87 104 -30 5 -58 0 -111 -19 -80 -29 -112 -32 -138
-13 -23 17 -24 63 -2 85 10 10 50 20 110 28 141 18 142 19 148 179 6 142 30
238 88 342 28 50 29 53 13 83 -8 18 -36 44 -60 58 -95 57 -123 81 -123 109 0
14 7 35 17 45 30 34 61 22 137 -51 81 -78 122 -94 152 -59 36 39 155 117 227
146 62 26 105 37 212 57 33 7 49 58 40 129 -14 101 -11 137 11 153 30 22 77
13 91 -18z"/>
<path d="M1309 2027 c-74 -25 -168 -79 -204 -117 l-25 -26 130 -92 c71 -51
138 -92 149 -92 33 0 51 28 52 78 0 26 4 98 7 160 l7 112 -25 0 c-14 0 -55
-11 -91 -23z"/>
<path d="M1580 2038 c2 -98 22 -314 31 -324 22 -26 52 -14 168 67 159 112 152
103 111 139 -90 76 -310 160 -310 118z"/>
<path d="M956 1712 c-31 -62 -54 -151 -57 -222 -3 -109 -20 -103 152 -54 83
24 157 49 165 55 34 28 16 56 -102 161 -64 57 -120 104 -124 106 -5 2 -20 -19
-34 -46z"/>
<path d="M1901 1659 c-61 -55 -115 -109 -121 -119 -19 -36 16 -58 155 -99 72
-21 140 -41 153 -45 21 -7 22 -5 22 51 0 32 -7 88 -15 126 -15 70 -62 187 -76
187 -4 0 -57 -45 -118 -101z"/>
<path d="M1427 1513 c-27 -37 -29 -50 -11 -114 2 -9 22 -24 44 -34 37 -17 42
-17 84 -1 41 16 45 20 53 64 8 44 7 50 -21 85 -26 33 -34 37 -75 37 -41 -1
-49 -5 -74 -37z"/>
<path d="M1093 1271 c-115 -19 -153 -29 -153 -40 0 -8 16 -43 37 -79 37 -67
161 -202 186 -202 7 0 37 58 71 139 88 212 82 220 -141 182z"/>
<path d="M1733 1285 c-13 -9 -23 -24 -23 -33 0 -9 27 -83 61 -164 l62 -148 37
30 c63 50 133 133 168 197 17 34 32 65 32 70 0 5 -64 19 -142 32 -79 13 -150
26 -158 28 -8 2 -25 -3 -37 -12z"/>
<path d="M1468 1153 c-13 -16 -158 -270 -158 -279 0 -9 125 -27 190 -27 71 0
190 18 190 29 0 10 -123 229 -147 262 -27 36 -52 41 -75 15z"/>
</g>
</svg>
